<svg width="24" height="24" viewBox="0 0 24 24" fill="none" xmlns="http://www.w3.org/2000/svg">
<g clip-path="url(#clip0_1_14)">
<path d="M12.1191 2.0967C15.2301 2.0967 15.5985 2.11034 16.822 2.16492C17.9591 2.21495 18.5731 2.40598 18.9824 2.56517C19.5237 2.77439 19.9148 3.0291 20.3196 3.4339C20.729 3.84324 20.9791 4.22985 21.1884 4.77109C21.3476 5.18044 21.5386 5.799 21.5886 6.93153C21.6432 8.15956 21.6568 8.52798 21.6568 11.6345C21.6568 14.7455 21.6432 15.1139 21.5886 16.3374C21.5386 17.4745 21.3476 18.0885 21.1884 18.4978C20.9791 19.0391 20.7244 19.4302 20.3196 19.835C19.9103 20.2444 19.5237 20.4945 18.9824 20.7037C18.5731 20.8629 17.9545 21.054 16.822 21.104C15.594 21.1586 15.2256 21.1722 12.1191 21.1722C9.00805 21.1722 8.63964 21.1586 7.41615 21.104C6.27908 21.054 5.66506 20.8629 5.25571 20.7037C4.71447 20.4945 4.32331 20.2398 3.91852 19.835C3.50917 19.4257 3.25902 19.0391 3.04979 18.4978C2.8906 18.0885 2.69958 17.4699 2.64954 16.3374C2.59497 15.1093 2.58132 14.7409 2.58132 11.6345C2.58132 8.52343 2.59497 8.15502 2.64954 6.93153C2.69958 5.79446 2.8906 5.18044 3.04979 4.77109C3.25902 4.22985 3.51372 3.83869 3.91852 3.4339C4.32786 3.02455 4.71447 2.77439 5.25571 2.56517C5.66506 2.40598 6.28363 2.21495 7.41615 2.16492C8.63964 2.11034 9.00805 2.0967 12.1191 2.0967ZM12.1191 -6.10352e-05C8.95802 -6.10352e-05 8.56232 0.0135838 7.32064 0.0681633C6.0835 0.122743 5.23297 0.322867 4.49615 0.609409C3.72749 0.909596 3.07708 1.3053 2.43123 1.9557C1.78082 2.60156 1.38512 3.25196 1.08493 4.01608C0.798392 4.75745 0.598268 5.60343 0.543688 6.84056C0.489109 8.08679 0.475464 8.48249 0.475464 11.6436C0.475464 14.8046 0.489109 15.2003 0.543688 16.442C0.598268 17.6791 0.798392 18.5297 1.08493 19.2665C1.38512 20.0351 1.78082 20.6855 2.43123 21.3314C3.07708 21.9773 3.72749 22.3775 4.4916 22.6731C5.23297 22.9597 6.07895 23.1598 7.31609 23.2144C8.55777 23.269 8.95347 23.2826 12.1145 23.2826C15.2756 23.2826 15.6713 23.269 16.913 23.2144C18.1501 23.1598 19.0006 22.9597 19.7375 22.6731C20.5016 22.3775 21.152 21.9773 21.7978 21.3314C22.4437 20.6855 22.8439 20.0351 23.1396 19.271C23.4261 18.5297 23.6262 17.6837 23.6808 16.4465C23.7354 15.2049 23.749 14.8092 23.749 11.6481C23.749 8.48704 23.7354 8.09134 23.6808 6.84966C23.6262 5.61252 23.4261 4.762 23.1396 4.02517C22.853 3.25196 22.4573 2.60156 21.8069 1.9557C21.1611 1.30985 20.5107 0.909596 19.7466 0.613958C19.0052 0.327416 18.1592 0.127291 16.9221 0.0727116C15.6758 0.0135838 15.2801 -6.10352e-05 12.1191 -6.10352e-05Z" fill="white"/>
<path d="M12.1197 5.66309C8.81761 5.66309 6.13867 8.34203 6.13867 11.6441C6.13867 14.9461 8.81761 17.6251 12.1197 17.6251C15.4217 17.6251 18.1007 14.9461 18.1007 11.6441C18.1007 8.34203 15.4217 5.66309 12.1197 5.66309ZM12.1197 15.5238C9.97743 15.5238 8.23998 13.7863 8.23998 11.6441C8.23998 9.50184 9.97743 7.76439 12.1197 7.76439C14.2619 7.76439 15.9994 9.50184 15.9994 11.6441C15.9994 13.7863 14.2619 15.5238 12.1197 15.5238Z" fill="white"/>
<path d="M19.733 5.42593C19.733 6.19914 19.1053 6.82225 18.3366 6.82225C17.5634 6.82225 16.9403 6.19459 16.9403 5.42593C16.9403 4.65272 17.568 4.0296 18.3366 4.0296C19.1053 4.0296 19.733 4.65727 19.733 5.42593Z" fill="white"/>
</g>
<defs>
<clipPath id="clip0_1_14">
<rect width="23.2872" height="23.2872" fill="white" transform="translate(0.475586)"/>
</clipPath>
</defs>
</svg>
