<svg width="24" height="24" viewBox="0 0 24 24" fill="none" xmlns="http://www.w3.org/2000/svg">
<g clip-path="url(#clip0_1_12)">
<path d="M22.2762 -6.10352e-05H2.43202C1.48143 -6.10352e-05 0.712769 0.750406 0.712769 1.67826V21.6043C0.712769 22.5322 1.48143 23.2872 2.43202 23.2872H22.2762C23.2268 23.2872 24 22.5322 24 21.6089V1.67826C24 0.750406 23.2268 -6.10352e-05 22.2762 -6.10352e-05ZM7.62162 19.8441H4.16492V8.7281H7.62162V19.8441ZM5.89327 7.21352C4.78349 7.21352 3.88747 6.31751 3.88747 5.21228C3.88747 4.10704 4.78349 3.21103 5.89327 3.21103C6.9985 3.21103 7.89451 4.10704 7.89451 5.21228C7.89451 6.31296 6.9985 7.21352 5.89327 7.21352ZM20.5569 19.8441H17.1048V14.4408C17.1048 13.1536 17.0821 11.4935 15.3082 11.4935C13.5116 11.4935 13.2388 12.8989 13.2388 14.3498V19.8441H9.79115V8.7281H13.1023V10.2472H13.1478C13.6072 9.37396 14.7351 8.45066 16.4135 8.45066C19.9111 8.45066 20.5569 10.7521 20.5569 13.7449V19.8441Z" fill="white"/>
</g>
<defs>
<clipPath id="clip0_1_12">
<rect width="23.2872" height="23.2872" fill="white" transform="translate(0.712891)"/>
</clipPath>
</defs>
</svg>
