<svg width="24" height="24" viewBox="0 0 24 24" fill="none" xmlns="http://www.w3.org/2000/svg">
<g clip-path="url(#clip0_1_18)">
<path d="M7.56323 21.1039C16.3487 21.1039 21.1553 13.8234 21.1553 7.51178C21.1553 7.30711 21.1508 7.09789 21.1417 6.89321C22.0767 6.21701 22.8836 5.37944 23.5245 4.41986C22.6537 4.8073 21.7291 5.06034 20.7824 5.17032C21.7792 4.57279 22.5256 3.63408 22.8832 2.52822C21.9454 3.084 20.9198 3.47606 19.8504 3.68758C19.1299 2.92197 18.1772 2.41504 17.1396 2.24517C16.1021 2.07531 15.0375 2.25196 14.1104 2.74783C13.1833 3.2437 12.4454 4.03116 12.0108 4.98847C11.5761 5.94577 11.469 7.0196 11.7058 8.04393C9.80689 7.94864 7.9492 7.45535 6.25315 6.59605C4.55711 5.73674 3.06058 4.53061 1.86059 3.05582C1.25069 4.10737 1.06406 5.35168 1.33863 6.53588C1.6132 7.72008 2.32836 8.75531 3.33878 9.43116C2.58022 9.40708 1.83828 9.20284 1.17425 8.83533V8.89446C1.17357 9.99797 1.55507 11.0677 2.25389 11.9217C2.95271 12.7758 3.92573 13.3614 5.00755 13.5792C4.30486 13.7715 3.56736 13.7995 2.85211 13.6611C3.15738 14.6101 3.75132 15.4401 4.55104 16.0354C5.35076 16.6306 6.31636 16.9613 7.31308 16.9813C5.62095 18.3105 3.53068 19.0315 1.37892 19.028C0.997329 19.0275 0.616109 19.0041 0.237305 18.958C2.42325 20.3604 4.9661 21.1052 7.56323 21.1039Z" fill="white"/>
</g>
<defs>
<clipPath id="clip0_1_18">
<rect width="23.2872" height="23.2872" fill="white" transform="translate(0.237305)"/>
</clipPath>
</defs>
</svg>
